# xmcd
#
# Track frame offsets:
#	150
#	6337
#	24952
#	41927
#	55737
#	66673
#	87383
#	95724
#	105522
#	116444
#	130521
#	141700
#	166301
#	179357
#	191179
#	199268
#	216654
#	228408
#	239367
#	258754
# Disc length: 3616 seconds
# Revision: 2
# Processed by: cddbd v1.5.2PL0 Copyright (c) Steve Scherf et al.
#
# Submitted via: libkcddb 0.3
#
DISCID=2d0e1e14
DTITLE=Consortium Vocale Münster and Jürgen Bleibel Trio - Swing low
DYEAR=1900
DGENRE=A Cappella
TTITLE0=Joshua fit the battle of Jericho
TTITLE1=Agua de Beber
TTITLE2=Go down Moses
TTITLE3=Standin in the need of Prayer
TTITLE4=Humble in my Soul
TTITLE5=Were You there
TTITLE6=Git on Board
TTITLE7=Swing Low
TTITLE8=Dis Train
TTITLE9=Motherless Child
TTITLE10=Give me Jesus
TTITLE11=God bless the Child_Instrumental
TTITLE12=Deep River
TTITLE13=I stood on the river
TTITLE14=Michael row the boat ashore
TTITLE15=My Lord is coming back
TTITLE16=Every time I feel the spirit
TTITLE17=Virgin Mary
TTITLE18=Chega de saudade
TTITLE19=Ride the Chariot
EXTD=Soli: Selma Garcia and Mark Coles
EXTT0=
EXTT1=
EXTT2=
EXTT3=
EXTT4=
EXTT5=
EXTT6=
EXTT7=
EXTT8=
EXTT9=
EXTT10=
EXTT11=
EXTT12=
EXTT13=
EXTT14=
EXTT15=
EXTT16=
EXTT17=
EXTT18=
EXTT19=
PLAYORDER=
